<svg width="637" height="424" viewBox="0 0 637 424" fill="none" xmlns="http://www.w3.org/2000/svg">
<path d="M402.295 106.187H465.324V372.323H402.295V106.187Z" fill="#EBEBEB"/>
<path d="M434.417 124.843H453.578V161.705H434.417V124.843Z" fill="white"/>
<path d="M443.463 161.697C443.599 161.697 443.717 153.446 443.717 143.27C443.717 133.094 443.599 124.843 443.463 124.843C443.327 124.843 443.208 133.094 443.208 143.27C443.208 153.446 443.353 161.697 443.463 161.697Z" fill="#E0E0E0"/>
<path d="M434.417 137.647C437.604 137.902 440.802 137.987 443.998 137.902C447.193 137.987 450.391 137.902 453.578 137.647C453.578 137.503 449.331 137.393 443.998 137.393C438.664 137.393 434.417 137.503 434.417 137.647Z" fill="#E0E0E0"/>
<path d="M434.324 150.825C434.324 150.969 438.647 151.08 443.981 151.08C449.314 151.08 453.637 150.969 453.637 150.825C450.425 150.571 447.202 150.486 443.981 150.571C440.759 150.486 437.536 150.571 434.324 150.825Z" fill="#E0E0E0"/>
<path d="M434.417 172.984H453.578V209.846H434.417V172.984Z" fill="white"/>
<path d="M443.463 209.846C443.599 209.846 443.717 201.595 443.717 191.419C443.717 181.243 443.599 172.984 443.463 172.984C443.327 172.984 443.208 181.235 443.208 191.419C443.208 201.604 443.353 209.846 443.463 209.846Z" fill="#E0E0E0"/>
<path d="M434.417 185.788C434.417 185.932 438.706 186.051 443.998 186.051C449.289 186.051 453.578 185.932 453.578 185.788C450.391 185.534 447.193 185.449 443.998 185.534C440.802 185.449 437.604 185.534 434.417 185.788Z" fill="#E0E0E0"/>
<path d="M434.324 198.975C434.324 199.119 438.647 199.229 443.981 199.229C449.314 199.229 453.637 199.119 453.637 198.975C453.637 198.831 449.314 198.72 443.981 198.72C438.647 198.72 434.324 198.831 434.324 198.975Z" fill="#E0E0E0"/>
<path d="M434.417 221.133H453.578V257.995H434.417V221.133Z" fill="white"/>
<path d="M443.463 257.995C443.599 257.995 443.717 249.736 443.717 239.56C443.717 229.384 443.599 221.133 443.463 221.133C443.327 221.133 443.208 229.384 443.208 239.56C443.208 249.736 443.353 257.995 443.463 257.995Z" fill="#E0E0E0"/>
<path d="M434.417 233.938C434.417 234.082 438.706 234.192 443.997 234.192C449.289 234.192 453.544 234.048 453.544 233.938C453.544 233.827 449.297 233.683 443.964 233.683C438.63 233.683 434.417 233.794 434.417 233.938Z" fill="#E0E0E0"/>
<path d="M434.324 247.124C437.536 247.379 440.759 247.463 443.981 247.379C447.202 247.463 450.425 247.379 453.637 247.124C453.637 246.98 449.314 246.861 443.981 246.861C438.647 246.861 434.324 246.98 434.324 247.124Z" fill="#E0E0E0"/>
<path d="M434.417 269.282H453.578V306.145H434.417V269.282Z" fill="white"/>
<path d="M443.463 306.128C443.599 306.128 443.717 297.877 443.717 287.701C443.717 277.525 443.599 269.274 443.463 269.274C443.327 269.274 443.208 277.516 443.208 287.701C443.208 297.885 443.353 306.128 443.463 306.128Z" fill="#E0E0E0"/>
<path d="M434.417 282.087C437.604 282.341 440.802 282.426 443.998 282.342C447.193 282.426 450.391 282.341 453.578 282.087C453.578 281.943 449.331 281.833 443.998 281.833C438.664 281.833 434.417 281.943 434.417 282.087Z" fill="#E0E0E0"/>
<path d="M434.324 295.265C434.324 295.409 438.647 295.52 443.981 295.52C449.314 295.52 453.637 295.409 453.637 295.265C450.425 295.011 447.202 294.926 443.981 295.011C440.759 294.926 437.536 295.011 434.324 295.265Z" fill="#E0E0E0"/>
<path d="M375.49 106.187H421.414V372.323H375.49V106.187Z" fill="#E0E0E0"/>
<path d="M387.992 124.843H407.153V161.705H387.992V124.843Z" fill="white"/>
<path d="M397.038 161.697C397.174 161.697 397.293 153.446 397.293 143.27C397.293 133.094 397.174 124.843 397.038 124.843C396.903 124.843 396.775 133.094 396.775 143.27C396.775 153.446 396.894 161.697 397.038 161.697Z" fill="#E0E0E0"/>
<path d="M387.992 137.647C391.179 137.902 394.377 137.987 397.573 137.902C400.769 137.987 403.967 137.902 407.153 137.647C407.153 137.503 402.864 137.393 397.573 137.393C392.282 137.393 387.992 137.503 387.992 137.647Z" fill="#E0E0E0"/>
<path d="M387.891 150.825C387.891 150.969 392.222 151.08 397.547 151.08C402.873 151.08 407.213 150.969 407.213 150.825C403.998 150.571 400.772 150.486 397.547 150.571C394.326 150.486 391.103 150.571 387.891 150.825Z" fill="#E0E0E0"/>
<path d="M387.992 173.382H407.153V210.245H387.992V173.382Z" fill="white"/>
<path d="M397.038 210.245C397.174 210.245 397.293 201.985 397.293 191.809C397.293 181.633 397.174 173.382 397.038 173.382C396.903 173.382 396.775 181.633 396.775 191.809C396.775 201.985 396.894 210.245 397.038 210.245Z" fill="#E0E0E0"/>
<path d="M387.992 186.187C387.992 186.331 392.282 186.441 397.573 186.441C402.864 186.441 407.153 186.331 407.153 186.187C407.153 186.043 402.864 185.932 397.573 185.932C392.282 185.932 387.992 186.043 387.992 186.187Z" fill="#E0E0E0"/>
<path d="M387.891 199.365C387.891 199.509 392.222 199.628 397.547 199.628C402.873 199.628 407.213 199.509 407.213 199.365C403.998 199.11 400.772 199.025 397.547 199.11C394.326 199.025 391.103 199.11 387.891 199.365Z" fill="#E0E0E0"/>
<path d="M387.992 221.922H407.153V258.784H387.992V221.922Z" fill="white"/>
<path d="M397.038 258.784C397.174 258.784 397.293 250.533 397.293 240.357C397.293 230.181 397.174 221.922 397.038 221.922C396.903 221.922 396.775 230.173 396.775 240.357C396.775 250.542 396.894 258.784 397.038 258.784Z" fill="#E0E0E0"/>
<path d="M387.992 234.726C387.992 234.871 392.282 234.981 397.573 234.981C402.864 234.981 407.153 234.871 407.153 234.726C403.967 234.472 400.769 234.387 397.573 234.472C394.377 234.387 391.179 234.472 387.992 234.726Z" fill="#E0E0E0"/>
<path d="M387.891 247.913C391.103 248.167 394.326 248.252 397.547 248.167C400.772 248.252 403.998 248.167 407.213 247.913C407.213 247.769 402.89 247.658 397.547 247.658C392.205 247.658 387.891 247.769 387.891 247.913Z" fill="#E0E0E0"/>
<path d="M387.992 270.461H407.153V307.324H387.992V270.461Z" fill="white"/>
<path d="M397.038 307.324C397.174 307.324 397.293 299.073 397.293 288.897C397.293 278.721 397.174 270.461 397.038 270.461C396.903 270.461 396.775 278.712 396.775 288.897C396.775 299.081 396.894 307.324 397.038 307.324Z" fill="#E0E0E0"/>
<path d="M387.992 283.232C387.992 283.376 392.282 283.495 397.573 283.495C402.864 283.495 407.153 283.376 407.153 283.232C403.967 282.978 400.769 282.893 397.573 282.978C394.377 282.893 391.179 282.978 387.992 283.232Z" fill="#E0E0E0"/>
<path d="M387.891 296.452C387.891 296.597 392.222 296.707 397.547 296.707C402.873 296.707 407.213 296.597 407.213 296.452C407.213 296.308 402.89 296.198 397.547 296.198C392.205 296.198 387.891 296.308 387.891 296.452Z" fill="#E0E0E0"/>
<path d="M434.417 317.423H453.578V354.286H434.417V317.423Z" fill="white"/>
<path d="M443.463 354.286C443.599 354.286 443.717 346.035 443.717 335.859C443.717 325.683 443.599 317.423 443.463 317.423C443.327 317.423 443.208 325.674 443.208 335.859C443.208 346.043 443.353 354.286 443.463 354.286Z" fill="#E0E0E0"/>
<path d="M434.417 330.228C434.417 330.372 438.706 330.482 443.998 330.482C449.289 330.482 453.578 330.372 453.578 330.228C450.391 329.974 447.193 329.889 443.998 329.974C440.802 329.889 437.604 329.974 434.417 330.228Z" fill="#E0E0E0"/>
<path d="M434.324 343.44C437.536 343.694 440.759 343.779 443.981 343.694C447.202 343.779 450.425 343.694 453.637 343.44C453.637 343.296 449.314 343.186 443.981 343.186C438.647 343.186 434.324 343.27 434.324 343.44Z" fill="#E0E0E0"/>
<path d="M387.992 319.009H407.153V355.872H387.992V319.009Z" fill="white"/>
<path d="M397.038 355.863C397.174 355.863 397.293 347.612 397.293 337.436C397.293 327.26 397.174 319.009 397.038 319.009C396.903 319.009 396.775 327.252 396.775 337.436C396.775 347.621 396.894 355.863 397.038 355.863Z" fill="#E0E0E0"/>
<path d="M387.992 331.814C391.179 332.068 394.377 332.153 397.573 332.068C400.769 332.153 403.967 332.068 407.153 331.814C407.153 331.67 402.864 331.56 397.573 331.56C392.282 331.56 387.992 331.67 387.992 331.814Z" fill="#E0E0E0"/>
<path d="M387.891 344.992C387.891 345.136 392.222 345.246 397.547 345.246C402.873 345.246 407.213 345.136 407.213 344.992C403.998 344.737 400.772 344.653 397.547 344.737C394.326 344.653 391.103 344.737 387.891 344.992Z" fill="#E0E0E0"/>
<path d="M126.219 105.415H189.248V371.551H126.219V105.415Z" fill="#EBEBEB"/>
<path d="M158.341 124.071H177.502V160.934H158.341V124.071Z" fill="white"/>
<path d="M167.387 160.934C167.523 160.934 167.641 152.674 167.641 142.498C167.641 132.322 167.523 124.071 167.387 124.071C167.251 124.071 167.133 132.322 167.133 142.498C167.133 152.674 167.243 160.934 167.387 160.934Z" fill="#E0E0E0"/>
<path d="M158.341 136.876C158.341 137.02 162.63 137.13 167.922 137.13C173.213 137.13 177.502 137.02 177.502 136.876C177.502 136.731 173.256 136.621 167.922 136.621C162.588 136.621 158.341 136.731 158.341 136.876Z" fill="#E0E0E0"/>
<path d="M158.248 150.096C161.46 150.35 164.684 150.435 167.905 150.35C171.126 150.435 174.349 150.35 177.562 150.096C177.562 149.952 173.239 149.833 167.905 149.833C162.571 149.833 158.248 149.918 158.248 150.096Z" fill="#E0E0E0"/>
<path d="M158.341 172.22H177.502V209.083H158.341V172.22Z" fill="white"/>
<path d="M167.387 209.074C167.523 209.074 167.641 200.823 167.641 190.647C167.641 180.471 167.523 172.22 167.387 172.22C167.251 172.22 167.133 180.463 167.133 190.647C167.133 200.832 167.243 209.074 167.387 209.074Z" fill="#E0E0E0"/>
<path d="M158.341 185.025C161.528 185.279 164.726 185.364 167.922 185.279C171.117 185.364 174.315 185.279 177.502 185.025C177.502 184.881 173.256 184.762 167.922 184.762C162.588 184.762 158.341 184.864 158.341 185.025Z" fill="#E0E0E0"/>
<path d="M158.248 198.203C158.248 198.347 162.571 198.457 167.905 198.457C173.239 198.457 177.562 198.347 177.562 198.203C177.562 198.059 173.239 197.949 167.905 197.949C162.571 197.949 158.248 198.059 158.248 198.203Z" fill="#E0E0E0"/>
<path d="M158.341 220.361H177.502V257.224H158.341V220.361Z" fill="white"/>
<path d="M167.387 257.224C167.523 257.224 167.641 248.973 167.641 238.797C167.641 228.621 167.523 220.361 167.387 220.361C167.251 220.361 167.133 228.612 167.133 238.797C167.133 248.981 167.243 257.224 167.387 257.224Z" fill="#E0E0E0"/>
<path d="M158.341 233.2C158.341 233.344 162.63 233.454 167.922 233.454C173.213 233.454 177.511 233.31 177.511 233.2C174.324 232.946 171.126 232.861 167.93 232.946C164.732 232.861 161.531 232.946 158.341 233.2Z" fill="#E0E0E0"/>
<path d="M158.248 246.352C161.46 246.607 164.684 246.692 167.905 246.607C171.126 246.692 174.349 246.607 177.562 246.352C177.562 246.208 173.239 246.098 167.905 246.098C162.571 246.098 158.248 246.208 158.248 246.352Z" fill="#E0E0E0"/>
<path d="M158.341 268.511H177.502V305.373H158.341V268.511Z" fill="white"/>
<path d="M167.387 305.365C167.523 305.365 167.641 297.114 167.641 286.938C167.641 276.762 167.523 268.511 167.387 268.511C167.251 268.511 167.133 276.762 167.133 286.938C167.133 297.114 167.243 305.365 167.387 305.365Z" fill="#E0E0E0"/>
<path d="M158.341 281.316C158.341 281.46 162.63 281.57 167.922 281.57C173.213 281.57 177.502 281.46 177.502 281.316C177.502 281.171 173.256 281.061 167.922 281.061C162.588 281.061 158.341 281.171 158.341 281.316Z" fill="#E0E0E0"/>
<path d="M158.248 294.493C158.248 294.638 162.571 294.756 167.905 294.756C173.239 294.756 177.562 294.638 177.562 294.493C174.349 294.239 171.126 294.154 167.905 294.239C164.684 294.154 161.46 294.239 158.248 294.493Z" fill="#E0E0E0"/>
<path d="M99.4145 105.415H145.338V371.551H99.4145V105.415Z" fill="#E0E0E0"/>
<path d="M111.917 124.071H131.078V160.934H111.917V124.071Z" fill="white"/>
<path d="M120.962 160.934C121.098 160.934 121.217 152.674 121.217 142.498C121.217 132.322 121.098 124.071 120.962 124.071C120.827 124.071 120.708 132.322 120.708 142.498C120.708 152.674 120.818 160.934 120.962 160.934Z" fill="#E0E0E0"/>
<path d="M111.917 136.876C111.917 137.02 116.206 137.13 121.497 137.13C126.788 137.13 131.078 137.02 131.078 136.876C131.078 136.731 126.788 136.621 121.497 136.621C116.206 136.621 111.917 136.731 111.917 136.876Z" fill="#E0E0E0"/>
<path d="M111.823 150.096C118.257 150.435 124.704 150.435 131.137 150.096C131.137 149.952 126.814 149.833 121.48 149.833C116.146 149.833 111.823 149.918 111.823 150.096Z" fill="#E0E0E0"/>
<path d="M111.917 172.61H131.078V209.473H111.917V172.61Z" fill="white"/>
<path d="M120.962 209.456C121.098 209.456 121.217 201.205 121.217 191.029C121.217 180.853 121.098 172.594 120.962 172.594C120.827 172.594 120.708 180.845 120.708 191.029C120.708 201.213 120.818 209.456 120.962 209.456Z" fill="#E0E0E0"/>
<path d="M111.917 185.415C111.917 185.559 116.206 185.67 121.497 185.67C126.788 185.67 131.078 185.559 131.078 185.415C124.695 185.076 118.299 185.076 111.917 185.415Z" fill="#E0E0E0"/>
<path d="M111.823 198.602C118.257 198.941 124.704 198.941 131.137 198.602C131.137 198.457 126.814 198.347 121.48 198.347C116.146 198.347 111.823 198.432 111.823 198.602Z" fill="#E0E0E0"/>
<path d="M111.917 221.15H131.078V258.012H111.917V221.15Z" fill="white"/>
<path d="M120.962 258.012C121.098 258.012 121.217 249.761 121.217 239.585C121.217 229.409 121.098 221.15 120.962 221.15C120.827 221.15 120.708 229.401 120.708 239.585C120.708 249.77 120.818 258.012 120.962 258.012Z" fill="#E0E0E0"/>
<path d="M111.917 233.955C111.917 234.099 116.206 234.218 121.497 234.218C126.788 234.218 131.078 234.099 131.078 233.955C124.695 233.616 118.299 233.616 111.917 233.955Z" fill="#E0E0E0"/>
<path d="M111.823 247.141C111.823 247.285 116.146 247.396 121.48 247.396C126.814 247.396 131.137 247.285 131.137 247.141C131.137 246.997 126.814 246.887 121.48 246.887C116.146 246.887 111.823 246.997 111.823 247.141Z" fill="#E0E0E0"/>
<path d="M111.917 269.698H131.078V306.561H111.917V269.698Z" fill="white"/>
<path d="M120.962 306.552C121.098 306.552 121.217 298.301 121.217 288.125C121.217 277.949 121.098 269.698 120.962 269.698C120.827 269.698 120.708 277.941 120.708 288.125C120.708 298.309 120.818 306.552 120.962 306.552Z" fill="#E0E0E0"/>
<path d="M111.917 282.503C118.299 282.842 124.695 282.842 131.078 282.503C131.078 282.359 126.788 282.248 121.497 282.248C116.206 282.248 111.917 282.384 111.917 282.503Z" fill="#E0E0E0"/>
<path d="M111.823 295.681C111.823 295.825 116.146 295.935 121.48 295.935C126.814 295.935 131.137 295.825 131.137 295.681C131.137 295.537 126.814 295.426 121.48 295.426C116.146 295.426 111.823 295.537 111.823 295.681Z" fill="#E0E0E0"/>
<path d="M158.341 316.652H177.502V353.514H158.341V316.652Z" fill="white"/>
<path d="M167.387 353.514C167.523 353.514 167.641 345.263 167.641 335.087C167.641 324.911 167.523 316.652 167.387 316.652C167.251 316.652 167.133 324.903 167.133 335.087C167.133 345.272 167.243 353.514 167.387 353.514Z" fill="#E0E0E0"/>
<path d="M158.341 329.465C161.528 329.719 164.726 329.804 167.922 329.719C171.117 329.804 174.315 329.719 177.502 329.465C177.502 329.321 173.256 329.202 167.922 329.202C162.588 329.202 158.341 329.321 158.341 329.465Z" fill="#E0E0E0"/>
<path d="M158.248 342.643C158.248 342.787 162.571 342.897 167.905 342.897C173.239 342.897 177.562 342.787 177.562 342.643C177.562 342.499 173.239 342.389 167.905 342.389C162.571 342.389 158.248 342.499 158.248 342.643Z" fill="#E0E0E0"/>
<path d="M111.917 318.237H131.078V355.1H111.917V318.237Z" fill="white"/>
<path d="M120.962 355.092C121.098 355.092 121.217 346.841 121.217 336.665C121.217 326.488 121.098 318.237 120.962 318.237C120.827 318.237 120.708 326.488 120.708 336.665C120.708 346.841 120.818 355.092 120.962 355.092Z" fill="#E0E0E0"/>
<path d="M111.917 331.042C111.917 331.186 116.206 331.297 121.497 331.297C126.788 331.297 131.078 331.186 131.078 331.042C131.078 330.898 126.788 330.788 121.497 330.788C116.206 330.788 111.917 330.898 111.917 331.042Z" fill="#E0E0E0"/>
<path d="M111.823 344.22C111.823 344.364 116.146 344.483 121.48 344.483C126.814 344.483 131.137 344.364 131.137 344.22C124.704 343.881 118.257 343.881 111.823 344.22Z" fill="#E0E0E0"/>
<path d="M302.617 43.1802H380.493V372.001H302.617V43.1802Z" fill="#EBEBEB"/>
<path d="M342.307 66.2288H365.978V111.775H342.307V66.2288Z" fill="white"/>
<path d="M353.476 111.775C353.646 111.775 353.79 101.599 353.79 88.9976C353.79 76.3963 353.646 66.2288 353.476 66.2288C353.306 66.2288 353.154 76.4048 353.154 88.9976C353.154 101.59 353.323 111.775 353.476 111.775Z" fill="#E0E0E0"/>
<path d="M342.281 82.0524C342.281 82.222 347.581 82.3662 354.113 82.3662C360.644 82.3662 366.003 82.2559 366.003 82.0524C366.003 81.8489 360.703 81.7386 354.164 81.7386C347.624 81.7386 342.281 81.8743 342.281 82.0524Z" fill="#E0E0E0"/>
<path d="M342.179 98.368C342.179 98.5376 347.522 98.6818 354.113 98.6818C360.703 98.6818 366.063 98.5122 366.063 98.368C366.063 98.2239 360.72 98.0458 354.13 98.0458C347.539 98.0458 342.179 98.1645 342.179 98.368Z" fill="#E0E0E0"/>
<path d="M342.307 125.716H365.978V171.262H342.307V125.716Z" fill="white"/>
<path d="M353.476 171.296C353.646 171.296 353.79 161.12 353.79 148.527C353.79 135.934 353.646 125.75 353.476 125.75C353.306 125.75 353.154 135.926 353.154 148.527C353.154 161.128 353.323 171.296 353.476 171.296Z" fill="#E0E0E0"/>
<path d="M342.281 141.54C342.281 141.718 347.581 141.853 354.113 141.853C360.644 141.853 365.952 141.718 365.952 141.54C365.952 141.362 360.652 141.226 354.113 141.226C347.573 141.226 342.281 141.362 342.281 141.54Z" fill="#E0E0E0"/>
<path d="M342.179 157.83C342.179 157.999 347.522 158.144 354.113 158.144C360.703 158.144 366.046 157.999 366.046 157.83C366.046 157.66 360.703 157.508 354.113 157.508C347.522 157.508 342.179 157.652 342.179 157.83Z" fill="#E0E0E0"/>
<path d="M342.307 185.203H365.978V230.749H342.307V185.203Z" fill="white"/>
<path d="M353.476 230.749C353.646 230.749 353.79 220.573 353.79 207.98C353.79 195.388 353.646 185.203 353.476 185.203C353.306 185.203 353.154 195.379 353.154 207.98C353.154 220.582 353.323 230.749 353.476 230.749Z" fill="#E0E0E0"/>
<path d="M342.281 201.027C342.281 201.205 347.581 201.341 354.113 201.341C360.644 201.341 365.952 201.205 365.952 201.027C365.952 200.849 360.652 200.713 354.113 200.713C347.573 200.713 342.281 200.849 342.281 201.027Z" fill="#E0E0E0"/>
<path d="M342.179 217.317C342.179 217.487 347.522 217.631 354.113 217.631C360.703 217.631 366.046 217.487 366.046 217.317C366.046 217.147 360.703 216.995 354.113 216.995C347.522 216.995 342.179 217.139 342.179 217.317Z" fill="#E0E0E0"/>
<path d="M342.307 244.69H365.978V290.237H342.307V244.69Z" fill="white"/>
<path d="M353.476 290.237C353.646 290.237 353.79 280.061 353.79 267.468C353.79 254.875 353.646 244.69 353.476 244.69C353.306 244.69 353.154 254.866 353.154 267.468C353.154 280.069 353.323 290.237 353.476 290.237Z" fill="#E0E0E0"/>
<path d="M342.281 260.514C342.281 260.692 347.581 260.828 354.113 260.828C360.644 260.828 365.952 260.692 365.952 260.514C365.952 260.336 360.652 260.2 354.113 260.2C347.573 260.2 342.281 260.336 342.281 260.514Z" fill="#E0E0E0"/>
<path d="M342.179 276.804C342.179 276.974 347.522 277.118 354.113 277.118C360.703 277.118 366.046 276.974 366.046 276.804C366.046 276.635 360.703 276.49 354.113 276.49C347.522 276.49 342.179 276.626 342.179 276.804Z" fill="#E0E0E0"/>
<path d="M269.493 43.1802H326.237V372.001H269.493V43.1802Z" fill="#E0E0E0"/>
<path d="M284.943 66.2288H308.614V111.775H284.943V66.2288Z" fill="white"/>
<path d="M296.112 111.775C296.29 111.775 296.426 101.599 296.426 88.9976C296.426 76.3963 296.29 66.2288 296.112 66.2288C295.934 66.2288 295.798 76.4048 295.798 88.9976C295.798 101.59 295.934 111.775 296.112 111.775Z" fill="#E0E0E0"/>
<path d="M284.943 82.0524C284.943 82.222 290.243 82.3662 296.774 82.3662C303.305 82.3662 308.614 82.222 308.614 82.0524C308.614 81.8828 303.314 81.7386 296.774 81.7386C290.234 81.7386 284.943 81.8743 284.943 82.0524Z" fill="#E0E0E0"/>
<path d="M284.816 98.368C284.816 98.5376 290.158 98.6818 296.749 98.6818C303.339 98.6818 308.682 98.5376 308.682 98.368C308.682 98.1984 303.339 98.0458 296.749 98.0458C290.158 98.0458 284.816 98.1645 284.816 98.368Z" fill="#E0E0E0"/>
<path d="M284.943 126.208H308.614V171.754H284.943V126.208Z" fill="white"/>
<path d="M296.112 171.745C296.29 171.745 296.426 161.569 296.426 148.977C296.426 136.384 296.29 126.208 296.112 126.208C295.934 126.208 295.798 136.384 295.798 148.977C295.798 161.569 295.934 171.745 296.112 171.745Z" fill="#E0E0E0"/>
<path d="M284.943 142.031C284.943 142.201 290.243 142.345 296.774 142.345C303.305 142.345 308.614 142.201 308.614 142.031C308.614 141.862 303.314 141.709 296.774 141.709C290.234 141.709 284.943 141.853 284.943 142.031Z" fill="#E0E0E0"/>
<path d="M284.816 158.313C284.816 158.491 290.158 158.627 296.749 158.627C303.339 158.627 308.682 158.491 308.682 158.313C308.682 158.135 303.339 157.999 296.749 157.999C290.158 157.999 284.816 158.144 284.816 158.313Z" fill="#E0E0E0"/>
<path d="M284.943 186.178H308.614V231.725H284.943V186.178Z" fill="white"/>
<path d="M296.112 231.725C296.29 231.725 296.426 221.549 296.426 208.956C296.426 196.363 296.29 186.178 296.112 186.178C295.934 186.178 295.798 196.354 295.798 208.956C295.798 221.557 295.934 231.725 296.112 231.725Z" fill="#E0E0E0"/>
<path d="M284.943 202.002C284.943 202.18 290.243 202.316 296.774 202.316C303.305 202.316 308.614 202.18 308.614 202.002C308.614 201.824 303.314 201.688 296.774 201.688C290.234 201.688 284.943 201.824 284.943 202.002Z" fill="#E0E0E0"/>
<path d="M284.816 218.292C284.816 218.462 290.158 218.606 296.749 218.606C303.339 218.606 308.682 218.462 308.682 218.292C308.682 218.123 303.339 217.978 296.749 217.978C290.158 217.978 284.816 218.114 284.816 218.292Z" fill="#E0E0E0"/>
<path d="M284.943 246.157H308.614V291.704H284.943V246.157Z" fill="white"/>
<path d="M296.112 291.712C296.29 291.712 296.426 281.536 296.426 268.935C296.426 256.333 296.29 246.166 296.112 246.166C295.934 246.166 295.798 256.342 295.798 268.935C295.798 281.528 295.934 291.712 296.112 291.712Z" fill="#E0E0E0"/>
<path d="M284.943 261.981C284.943 262.151 290.243 262.295 296.774 262.295C303.305 262.295 308.614 262.151 308.614 261.981C308.614 261.812 303.314 261.667 296.774 261.667C290.234 261.667 284.943 261.803 284.943 261.981Z" fill="#E0E0E0"/>
<path d="M284.816 278.263C284.816 278.441 290.158 278.585 296.749 278.585C303.339 278.585 308.682 278.441 308.682 278.263C308.682 278.085 303.339 277.949 296.749 277.949C290.158 277.949 284.816 278.093 284.816 278.263Z" fill="#E0E0E0"/>
<path d="M342.307 304.178H365.978V349.724H342.307V304.178Z" fill="white"/>
<path d="M353.476 349.724C353.646 349.724 353.79 339.548 353.79 326.955C353.79 314.362 353.646 304.178 353.476 304.178C353.306 304.178 353.154 314.354 353.154 326.955C353.154 339.556 353.323 349.724 353.476 349.724Z" fill="#E0E0E0"/>
<path d="M342.281 320.001C342.281 320.179 347.581 320.315 354.113 320.315C360.644 320.315 365.952 320.179 365.952 320.001C365.952 319.823 360.678 319.696 354.172 319.696C347.666 319.696 342.281 319.832 342.281 320.001Z" fill="#E0E0E0"/>
<path d="M342.179 336.291C342.179 336.461 347.522 336.605 354.113 336.605C360.703 336.605 366.046 336.461 366.046 336.291C366.046 336.122 360.703 335.978 354.113 335.978C347.522 335.978 342.179 336.113 342.179 336.291Z" fill="#E0E0E0"/>
<path d="M284.943 306.136H308.614V351.683H284.943V306.136Z" fill="white"/>
<path d="M296.112 351.674C296.29 351.674 296.426 341.498 296.426 328.905C296.426 316.312 296.29 306.136 296.112 306.136C295.934 306.136 295.798 316.312 295.798 328.905C295.798 341.498 295.934 351.674 296.112 351.674Z" fill="#E0E0E0"/>
<path d="M284.943 321.952C284.943 322.13 290.243 322.274 296.774 322.274C303.305 322.274 308.614 322.13 308.614 321.952C308.614 321.774 303.314 321.638 296.774 321.638C290.234 321.638 284.943 321.782 284.943 321.952Z" fill="#E0E0E0"/>
<path d="M284.816 338.242C284.816 338.42 290.158 338.555 296.749 338.555C303.339 338.555 308.682 338.42 308.682 338.242C308.682 338.064 303.339 337.928 296.749 337.928C290.158 337.928 284.816 338.072 284.816 338.242Z" fill="#E0E0E0"/>
<path d="M159.53 70.6384C159.097 67.4923 163.539 64.9059 166.886 64.643C168.474 64.5073 170.13 64.7532 171.633 64.2275C174.903 63.0912 176.211 58.8766 179.405 57.5283C181.783 56.5276 184.501 57.418 186.845 58.5798C189.189 59.7416 191.44 61.2086 194.022 61.3697C196.272 61.5139 198.71 60.6828 200.672 61.7768C202.141 62.6248 202.906 64.3208 204.256 65.279C205.66 66.1452 207.286 66.5842 208.936 66.5425C210.582 66.5017 212.221 66.7692 213.769 67.3312C215.255 68.0096 216.495 69.5868 216.181 71.198L159.53 70.6384Z" fill="#EBEBEB"/>
<path d="M528.175 95.4933C527.742 92.3473 532.192 89.7609 535.53 89.4895C537.118 89.3623 538.775 89.6082 540.286 89.0825C543.556 87.9461 544.856 83.7316 548.049 82.3833C550.436 81.3826 553.145 82.273 555.49 83.4348C557.834 84.5965 560.084 86.0636 562.666 86.2247C564.917 86.3689 567.355 85.5378 569.317 86.6317C570.786 87.4797 571.55 89.1757 572.901 90.1255C574.306 90.9901 575.931 91.4318 577.581 91.3975C579.227 91.3526 580.867 91.6203 582.413 92.1861C583.9 92.8645 585.14 94.4418 584.825 96.053L528.175 95.4933Z" fill="#EBEBEB"/>
<path d="M436.719 64.1936C436.048 59.3176 442.944 55.3066 448.125 54.8656C450.597 54.6706 453.162 55.0437 455.506 54.2296C460.602 52.4658 462.606 45.9277 467.558 43.8416C471.261 42.2813 475.516 43.672 479.109 45.4698C482.702 47.2675 486.235 49.5402 490.244 49.7946C493.734 50.0235 497.522 48.7346 500.572 50.4306C502.839 51.6941 504.037 54.3144 506.126 55.8578C508.216 57.4011 510.857 57.681 513.397 57.8251C515.936 57.9693 518.569 57.9862 520.888 59.0462C523.206 60.1062 525.134 62.5485 524.642 65.0501L436.719 64.1936Z" fill="#F5F5F5"/>
<path d="M37.1074 372.162C37.1074 372.28 163.097 372.382 318.483 372.382C473.869 372.382 599.893 372.272 599.893 372.162C599.893 372.052 473.928 371.941 318.5 371.941C163.072 371.941 37.1074 372.043 37.1074 372.162Z" fill="#263238"/>
<path d="M365.019 180.394L365.394 220.164L70.7226 222.937L70.3472 183.167L365.019 180.394Z" fill="#545989"/>
<g opacity="0.4">
<path opacity="0.4" d="M365.019 180.394L365.394 220.164L70.7226 222.941L70.3477 183.171L365.019 180.394Z" fill="black"/>
</g>
<path d="M377.376 176.901C375.781 172.682 373.046 168.986 369.475 166.224C365.903 163.462 361.636 161.742 357.145 161.256L290.897 154.115L266.589 137.155C249.682 125.369 229.513 119.144 208.894 119.347L79.6759 120.569L51.9027 120.831C51.2771 120.836 50.6723 121.057 50.1911 121.456C49.71 121.855 49.382 122.409 49.263 123.022C49.1439 123.635 49.2411 124.271 49.5381 124.82C49.835 125.37 50.3134 125.801 50.892 126.038L62.2561 130.762C61.8402 131.483 61.4659 132.228 61.1349 132.992L54.8839 147.849C53.3724 151.451 52.6152 155.324 52.6586 159.229C51.8087 159.237 50.9687 159.412 50.1864 159.743C49.4042 160.075 48.6951 160.558 48.0996 161.163C47.5042 161.769 47.034 162.486 46.716 163.273C46.398 164.06 46.2383 164.901 46.2462 165.75L46.4925 191.512L39.8082 194.565C38.2361 195.283 36.9061 196.44 35.9791 197.897C35.052 199.354 34.5677 201.048 34.5848 202.774L34.6527 209.456C34.6765 211.979 35.5743 214.416 37.1938 216.353C38.8134 218.29 41.0546 219.607 43.5368 220.081L79.0984 226.865V223.66C79.0032 214.595 82.5166 205.864 88.8662 199.384C95.2159 192.904 103.882 189.207 112.961 189.104C117.464 189.063 121.93 189.907 126.105 191.59C130.281 193.272 134.083 195.759 137.296 198.909C140.508 202.059 143.068 205.81 144.828 209.948C146.588 214.085 147.515 218.529 147.555 223.024V226.229L290.158 224.881V221.676C290.115 217.18 290.96 212.721 292.645 208.552C294.33 204.383 296.821 200.587 299.976 197.38C303.131 194.173 306.889 191.618 311.033 189.862C315.178 188.106 319.629 187.183 324.131 187.145C328.633 187.103 333.1 187.946 337.275 189.629C341.451 191.311 345.253 193.798 348.465 196.948C351.677 200.098 354.236 203.85 355.994 207.988C357.753 212.126 358.678 216.57 358.716 221.065V224.296L376.255 224.025C377.381 224.017 378.494 223.787 379.531 223.349C380.568 222.91 381.508 222.272 382.297 221.47C383.086 220.668 383.709 219.718 384.13 218.675C384.55 217.632 384.76 216.516 384.748 215.392L384.57 195.888L377.376 176.901Z" fill="#081056"/>
<path d="M61.152 132.933L54.9009 147.789C53.3798 151.41 52.6168 155.303 52.6586 159.229L61.4832 159.144L69.8746 133.865L62.2816 130.702C61.863 131.424 61.4858 132.168 61.152 132.933Z" fill="#455A64"/>
<path d="M377.376 176.901C376.826 175.459 376.143 174.071 375.337 172.755L365.952 172.848L374.632 192.437L384.561 198.033V195.888L377.376 176.901Z" fill="#9A9AA8"/>
<g opacity="0.2">
<path opacity="0.2" d="M377.376 176.901C376.826 175.459 376.143 174.071 375.337 172.755L365.952 172.848L374.632 192.437L384.561 198.033V195.888L377.376 176.901Z" fill="black"/>
</g>
<path d="M47.0785 182.803H51.9367C54.7174 182.759 57.4189 181.872 59.6827 180.259L67.7259 174.578C68.424 174.084 68.992 173.429 69.381 172.669C69.77 171.908 69.9686 171.065 69.9596 170.211C69.953 169.517 69.8095 168.831 69.5374 168.193C69.2653 167.554 68.87 166.976 68.3739 166.49C67.8778 166.004 67.2907 165.62 66.6462 165.361C66.0016 165.102 65.3122 164.972 64.6173 164.978L46.9256 165.148C46.8241 165.149 46.7238 165.17 46.6305 165.21C46.5371 165.25 46.4525 165.308 46.3815 165.38C46.3105 165.452 46.2545 165.538 46.2167 165.632C46.1789 165.726 46.16 165.827 46.1611 165.928L46.2971 182.04C46.2982 182.141 46.3193 182.242 46.3591 182.335C46.399 182.428 46.4569 182.512 46.5294 182.583C46.602 182.654 46.6878 182.71 46.782 182.748C46.8762 182.786 46.9769 182.804 47.0785 182.803Z" fill="#EBEBEB"/>
<path d="M385.062 197.152L382.2 195.549H383.899C384.154 195.526 384.391 195.408 384.564 195.219C384.737 195.03 384.833 194.783 384.833 194.527C384.833 194.271 384.737 194.024 384.564 193.835C384.391 193.646 384.154 193.528 383.899 193.505L378.641 193.556L376.858 192.555L382.862 192.496C383.118 192.473 383.355 192.355 383.528 192.166C383.701 191.977 383.797 191.73 383.797 191.474C383.797 191.218 383.701 190.971 383.528 190.782C383.355 190.593 383.118 190.476 382.862 190.452L374.887 190.529L374.437 189.511L381.656 189.443C381.928 189.468 382.198 189.384 382.407 189.21C382.617 189.036 382.748 188.786 382.773 188.515C382.798 188.244 382.714 187.974 382.54 187.765C382.365 187.556 382.115 187.424 381.843 187.4C381.781 187.391 381.718 187.391 381.656 187.4L373.554 187.476L373.104 186.458L380.646 186.39C380.901 186.367 381.138 186.249 381.311 186.06C381.484 185.871 381.58 185.625 381.58 185.369C381.58 185.113 381.484 184.866 381.311 184.677C381.138 184.488 380.901 184.37 380.646 184.347L372.229 184.432L371.779 183.414L379.423 183.338C379.678 183.314 379.915 183.197 380.088 183.008C380.261 182.819 380.357 182.572 380.357 182.316C380.357 182.06 380.261 181.813 380.088 181.624C379.915 181.435 379.678 181.317 379.423 181.294L370.861 181.379L370.411 180.361L378.242 180.285C378.512 180.285 378.772 180.178 378.963 179.987C379.154 179.796 379.261 179.537 379.261 179.267C379.261 178.997 379.154 178.738 378.963 178.548C378.772 178.357 378.512 178.25 378.242 178.25L369.528 178.326L369.078 177.308L377.104 177.232C377.374 177.232 377.634 177.125 377.825 176.934C378.016 176.743 378.123 176.484 378.123 176.214C378.123 175.945 378.016 175.686 377.825 175.495C377.634 175.304 377.374 175.197 377.104 175.197L368.16 175.282L367.532 173.865L375.363 173.798C375.634 173.822 375.904 173.738 376.114 173.564C376.323 173.39 376.455 173.14 376.48 172.869C376.505 172.598 376.42 172.328 376.246 172.119C376.072 171.91 375.821 171.779 375.55 171.754H375.363L366.02 171.847C365.886 171.847 365.753 171.874 365.629 171.926C365.506 171.977 365.393 172.053 365.299 172.149C365.205 172.244 365.131 172.357 365.081 172.482C365.032 172.606 365.007 172.739 365.009 172.873C365.008 173.013 365.037 173.152 365.094 173.28L367.889 179.776L369.239 182.829L370.59 185.882L371.94 188.926L373.282 191.97L373.681 192.869C373.773 193.071 373.924 193.239 374.114 193.352L384.052 198.949C384.206 199.04 384.382 199.087 384.561 199.085C384.735 199.075 384.904 199.022 385.053 198.93C385.201 198.838 385.324 198.711 385.41 198.559C385.552 198.33 385.597 198.054 385.535 197.791C385.473 197.529 385.309 197.302 385.079 197.16L385.062 197.152Z" fill="#919AAF"/>
<g opacity="0.2">
<path opacity="0.2" d="M385.062 197.152L382.2 195.549H383.899C384.154 195.526 384.391 195.408 384.564 195.219C384.737 195.03 384.833 194.783 384.833 194.527C384.833 194.271 384.737 194.024 384.564 193.835C384.391 193.646 384.154 193.528 383.899 193.505L378.641 193.556L376.858 192.555L382.862 192.496C383.118 192.473 383.355 192.355 383.528 192.166C383.701 191.977 383.797 191.73 383.797 191.474C383.797 191.218 383.701 190.971 383.528 190.782C383.355 190.593 383.118 190.476 382.862 190.452L374.887 190.529L374.437 189.511L381.656 189.443C381.928 189.468 382.198 189.384 382.407 189.21C382.617 189.036 382.748 188.786 382.773 188.515C382.798 188.244 382.714 187.974 382.54 187.765C382.365 187.556 382.115 187.424 381.843 187.4C381.781 187.391 381.718 187.391 381.656 187.4L373.554 187.476L373.104 186.458L380.646 186.39C380.901 186.367 381.138 186.249 381.311 186.06C381.484 185.871 381.58 185.625 381.58 185.369C381.58 185.113 381.484 184.866 381.311 184.677C381.138 184.488 380.901 184.37 380.646 184.347L372.229 184.432L371.779 183.414L379.423 183.338C379.678 183.314 379.915 183.197 380.088 183.008C380.261 182.819 380.357 182.572 380.357 182.316C380.357 182.06 380.261 181.813 380.088 181.624C379.915 181.435 379.678 181.317 379.423 181.294L370.861 181.379L370.411 180.361L378.242 180.285C378.512 180.285 378.772 180.178 378.963 179.987C379.154 179.796 379.261 179.537 379.261 179.267C379.261 178.997 379.154 178.738 378.963 178.548C378.772 178.357 378.512 178.25 378.242 178.25L369.528 178.326L369.078 177.308L377.104 177.232C377.374 177.232 377.634 177.125 377.825 176.934C378.016 176.743 378.123 176.484 378.123 176.214C378.123 175.945 378.016 175.686 377.825 175.495C377.634 175.304 377.374 175.197 377.104 175.197L368.16 175.282L367.532 173.865L375.363 173.798C375.634 173.822 375.904 173.738 376.114 173.564C376.323 173.39 376.455 173.14 376.48 172.869C376.505 172.598 376.42 172.328 376.246 172.119C376.072 171.91 375.821 171.779 375.55 171.754H375.363L366.02 171.847C365.886 171.847 365.753 171.874 365.629 171.926C365.506 171.977 365.393 172.053 365.299 172.149C365.205 172.244 365.131 172.357 365.081 172.482C365.032 172.606 365.007 172.739 365.009 172.873C365.008 173.013 365.037 173.152 365.094 173.28L367.889 179.776L369.239 182.829L370.59 185.882L371.94 188.926L373.282 191.97L373.681 192.869C373.773 193.071 373.924 193.239 374.114 193.352L384.052 198.949C384.206 199.04 384.382 199.087 384.561 199.085C384.735 199.075 384.904 199.022 385.053 198.93C385.201 198.838 385.324 198.711 385.41 198.559C385.552 198.33 385.597 198.054 385.535 197.791C385.473 197.529 385.309 197.302 385.079 197.16L385.062 197.152Z" fill="white"/>
</g>
<path d="M111.848 254.409C95.402 253.166 83.0797 238.847 84.3249 222.427C85.5701 206.007 99.9113 193.704 116.357 194.948C132.802 196.191 145.125 210.51 143.88 226.929C142.634 243.349 128.293 255.652 111.848 254.409Z" fill="#263238"/>
<path d="M84.2538 224.491V224.567C84.2144 232.475 87.3228 240.074 92.8953 245.694C98.4677 251.313 106.048 254.492 113.968 254.531C121.888 254.571 129.499 251.467 135.127 245.903C140.756 240.34 143.94 232.772 143.979 224.864V224.788L84.2538 224.491Z" fill="#263238"/>
<path d="M93.1463 224.61C93.1262 228.749 94.3359 232.801 96.6225 236.254C98.909 239.707 102.17 242.405 105.992 244.008C109.815 245.61 114.027 246.045 118.097 245.257C122.167 244.47 125.912 242.494 128.857 239.582C131.803 236.669 133.818 232.95 134.646 228.894C135.475 224.838 135.08 220.628 133.512 216.796C131.945 212.965 129.274 209.683 125.838 207.367C122.402 205.05 118.356 203.803 114.21 203.783C111.457 203.769 108.729 204.298 106.18 205.337C103.632 206.376 101.314 207.907 99.3579 209.841C97.4019 211.775 95.8466 214.074 94.7809 216.608C93.7151 219.142 93.1597 221.861 93.1463 224.61Z" fill="#FAFAFA"/>
<path d="M114.21 203.783C111.458 203.768 108.731 204.295 106.183 205.333C103.635 206.371 101.317 207.9 99.3613 209.832C97.4054 211.765 95.8498 214.063 94.7835 216.595C93.7171 219.128 93.1608 221.845 93.1463 224.593L135.069 224.805C135.084 222.056 134.556 219.332 133.516 216.787C132.476 214.243 130.944 211.927 129.008 209.974C127.072 208.02 124.769 206.466 122.232 205.401C119.694 204.336 116.971 203.78 114.218 203.766L114.21 203.783Z" fill="#E0E0E0"/>
<path d="M101.334 224.652C101.346 228.01 102.693 231.226 105.078 233.595C107.463 235.963 110.691 237.289 114.055 237.283C117.418 237.277 120.642 235.938 123.018 233.562C125.394 231.185 126.729 227.964 126.729 224.605C126.729 221.247 125.394 218.026 123.018 215.649C120.642 213.272 117.418 211.934 114.055 211.928C110.691 211.922 107.463 213.248 105.078 215.616C102.693 217.984 101.346 221.201 101.334 224.559V224.652Z" fill="#263238"/>
<path d="M294.719 222.575C294.692 228.471 296.417 234.243 299.675 239.161C302.934 244.079 307.58 247.921 313.026 250.203C318.472 252.485 324.473 253.103 330.27 251.979C336.068 250.856 341.402 248.041 345.598 243.891C349.793 239.742 352.662 234.443 353.842 228.665C355.021 222.887 354.459 216.89 352.225 211.431C349.99 205.973 346.186 201.298 341.291 197.999C336.396 194.699 330.631 192.923 324.726 192.895C320.803 192.876 316.916 193.628 313.285 195.11C309.654 196.591 306.351 198.772 303.564 201.528C300.778 204.284 298.562 207.562 297.045 211.173C295.527 214.784 294.736 218.658 294.719 222.575Z" fill="#263238"/>
<path d="M294.719 222.498V222.575C294.594 226.513 295.253 230.436 296.656 234.118C298.06 237.801 300.18 241.169 302.895 244.028C305.61 246.887 308.866 249.181 312.474 250.776C316.082 252.372 319.971 253.237 323.917 253.323C327.862 253.409 331.785 252.713 335.459 251.276C339.133 249.839 342.486 247.689 345.323 244.95C348.16 242.212 350.425 238.939 351.988 235.321C353.551 231.703 354.379 227.812 354.427 223.872C354.427 223.558 354.427 223.236 354.427 222.914V222.837L294.719 222.498Z" fill="#263238"/>
<path d="M303.637 222.625C303.61 226.766 304.813 230.822 307.095 234.28C309.377 237.738 312.635 240.442 316.456 242.052C320.278 243.661 324.491 244.103 328.564 243.321C332.637 242.54 336.386 240.57 339.338 237.661C342.29 234.752 344.311 231.034 345.146 226.978C345.982 222.922 345.594 218.71 344.032 214.874C342.469 211.038 339.803 207.751 336.37 205.428C332.936 203.105 328.89 201.851 324.743 201.824C321.988 201.805 319.258 202.328 316.706 203.363C314.154 204.399 311.832 205.926 309.872 207.858C307.912 209.79 306.352 212.088 305.283 214.622C304.213 217.156 303.653 219.876 303.637 222.625Z" fill="#FAFAFA"/>
<path d="M324.709 201.824C321.955 201.811 319.225 202.339 316.676 203.379C314.127 204.419 311.807 205.95 309.851 207.884C307.894 209.819 306.338 212.12 305.272 214.655C304.206 217.19 303.65 219.91 303.637 222.659L345.568 222.863C345.595 217.311 343.413 211.977 339.501 208.031C335.59 204.086 330.269 201.853 324.709 201.824Z" fill="#E0E0E0"/>
<path d="M311.833 222.659C311.845 226.018 313.191 229.234 315.576 231.602C317.961 233.97 321.19 235.296 324.553 235.29C327.917 235.284 331.141 233.946 333.517 231.569C335.893 229.192 337.228 225.971 337.228 222.613C337.228 219.254 335.893 216.033 333.517 213.656C331.141 211.28 327.917 209.941 324.553 209.935C321.19 209.929 317.961 211.255 315.576 213.624C313.191 215.992 311.845 219.208 311.833 222.566V222.659Z" fill="#263238"/>
<path d="M290.914 154.116L266.606 137.156C259.605 132.276 252.003 128.32 243.988 125.385L236.03 125.462L284.637 157.058L290.914 154.116Z" fill="#455A64"/>
<path d="M362.334 170.999L374.072 170.889C372.347 168.642 370.294 166.667 367.982 165.029C365.29 164.19 362.045 167.582 362.334 170.999Z" fill="#FAFAFA"/>
<path d="M123.009 159.483L278.343 158.016L233.711 127.878C230.439 125.525 226.499 124.277 222.466 124.317L126.168 125.224C126.168 125.224 91.5667 124.707 84.0755 135.197L123.009 159.483Z" fill="#263238"/>
<path d="M124.334 159.543L129.821 127.124L111.747 127.293C104.801 127.429 97.9357 128.802 91.4732 131.347L86.0374 133.797C85.4043 134.056 84.8285 134.437 84.3431 134.918C83.8576 135.399 83.4721 135.971 83.2086 136.601C82.945 137.232 82.8086 137.908 82.8073 138.591C82.8059 139.274 82.9397 139.95 83.2007 140.581C83.3959 141.055 83.6591 141.498 83.9821 141.896L90.4115 149.706C92.8157 152.643 95.81 155.044 99.201 156.755C102.592 158.465 106.305 159.447 110.099 159.636C110.66 159.636 111.229 159.678 111.798 159.678L124.334 159.543ZM195.975 158.864L195.669 126.496L142.442 126.996L136.98 159.424L195.975 158.864ZM272.058 158.144L231.868 128.752C229.594 127.078 226.837 126.185 224.012 126.208L205.607 126.377L212.146 158.686L272.058 158.144Z" fill="#455A64"/>
<path d="M206.388 217.656V208.998C206.388 203.613 206.388 196.21 206.439 188.027C206.439 183.931 206.439 180.03 206.498 176.477V171.44C206.548 169.982 206.483 168.521 206.303 167.073C206.016 164.974 205.513 162.911 204.8 160.916C204.553 160.213 204.341 159.67 204.188 159.305C204.112 159.136 204.061 159 204.01 158.89L203.959 158.746C203.959 158.746 203.959 158.788 204.035 158.881C204.117 159.01 204.185 159.146 204.239 159.288C204.401 159.644 204.638 160.136 204.902 160.883C205.62 162.88 206.118 164.95 206.388 167.056C206.583 168.512 206.66 169.981 206.617 171.449V176.486C206.617 180.039 206.617 183.94 206.617 188.036C206.566 196.219 206.524 203.63 206.49 209.015C206.49 211.678 206.439 213.849 206.422 215.367V217.512C206.415 217.561 206.404 217.609 206.388 217.656Z" fill="#263238"/>
<path d="M273.23 160.391C273.23 160.391 273.273 160.391 273.349 160.467L273.706 160.738L273.961 160.933L274.224 161.222C274.459 161.447 274.672 161.694 274.861 161.96C276.059 163.65 276.987 165.515 277.613 167.488C278.083 168.838 278.482 170.211 278.811 171.601C278.989 172.348 279.159 173.119 279.312 173.925C279.472 174.763 279.543 175.616 279.524 176.469C279.524 179.92 279.482 183.719 279.422 187.696C279.286 195.659 279.116 202.867 278.972 208.048C278.896 210.643 278.836 212.746 278.794 214.23C278.794 214.943 278.743 215.502 278.726 215.926V214.23C278.726 212.755 278.785 210.643 278.828 208.057C278.921 202.816 279.048 195.617 279.193 187.662C279.252 183.685 279.329 179.895 279.312 176.452C279.336 175.616 279.271 174.78 279.116 173.959C278.972 173.162 278.811 172.381 278.632 171.644C278.284 170.151 277.885 168.777 277.469 167.548C276.87 165.579 275.976 163.712 274.819 162.01C274.356 161.409 273.823 160.865 273.23 160.391Z" fill="#263238"/>
<path d="M278.343 159.288C278.335 158.343 278.075 157.417 277.59 156.604C277.105 155.792 276.412 155.124 275.583 154.667L268.551 150.817C266.546 149.714 264.291 149.147 262.002 149.172C260.592 149.181 259.193 149.416 257.858 149.867C256.409 150.392 255.152 151.341 254.254 152.591C253.355 153.841 252.855 155.333 252.821 156.871C252.793 157.883 252.964 158.89 253.326 159.835C253.688 160.78 254.232 161.644 254.929 162.379C255.625 163.114 256.46 163.704 257.385 164.117C258.31 164.529 259.308 164.756 260.321 164.783H260.601L273.061 164.665C273.76 164.659 274.451 164.516 275.095 164.244C275.739 163.971 276.323 163.575 276.814 163.077C277.304 162.58 277.692 161.99 277.954 161.343C278.217 160.696 278.349 160.003 278.343 159.305V159.288Z" fill="#081056"/>
<path d="M278.343 159.288C278.336 159.516 278.314 159.742 278.276 159.967C278.182 160.605 277.978 161.222 277.672 161.79C277.28 162.518 276.72 163.143 276.04 163.614C275.36 164.086 274.577 164.39 273.757 164.504C273.042 164.561 272.325 164.581 271.608 164.563L260.941 164.631C259.927 164.665 258.916 164.51 257.959 164.173C256.953 163.803 256.037 163.226 255.268 162.48C254.5 161.733 253.898 160.834 253.5 159.84C253.101 158.791 252.933 157.669 253.008 156.549C253.086 155.447 253.403 154.375 253.937 153.407C254.471 152.44 255.208 151.599 256.099 150.944C256.97 150.349 257.948 149.928 258.979 149.706C261.812 149.001 264.8 149.258 267.472 150.435C268.321 150.791 269.026 151.232 269.757 151.622L271.855 152.759L275.456 154.709C276.193 155.097 276.83 155.652 277.315 156.329C277.8 157.007 278.12 157.787 278.25 158.61C278.318 159.051 278.318 159.288 278.335 159.288C278.36 159.06 278.36 158.83 278.335 158.601C278.258 157.947 278.056 157.314 277.74 156.736C277.238 155.812 276.481 155.053 275.558 154.548L271.982 152.555C271.311 152.191 270.615 151.809 269.893 151.402C269.15 150.959 268.384 150.554 267.599 150.189C264.874 148.973 261.82 148.695 258.919 149.401C257.847 149.627 256.83 150.065 255.93 150.69C254.992 151.365 254.215 152.239 253.656 153.249C253.096 154.259 252.768 155.38 252.694 156.532C252.618 157.687 252.795 158.845 253.212 159.924C253.622 160.962 254.249 161.901 255.052 162.678C255.854 163.454 256.814 164.051 257.866 164.427C258.855 164.776 259.901 164.935 260.949 164.894L271.617 164.758C272.342 164.768 273.068 164.739 273.791 164.673C274.97 164.505 276.059 163.948 276.884 163.09C277.709 162.233 278.223 161.124 278.343 159.941C278.36 159.724 278.36 159.506 278.343 159.288Z" fill="#263238"/>
<path d="M258.962 152.14C259.139 151.925 259.339 151.729 259.556 151.555C260.152 151.091 260.862 150.798 261.612 150.707C262.732 150.604 263.863 150.716 264.941 151.037C266.289 151.358 267.607 151.792 268.882 152.335C271.2 153.317 273.363 154.631 275.303 156.236C276.798 157.465 277.588 158.381 277.639 158.339C277.484 158.1 277.305 157.878 277.103 157.677C276.584 157.11 276.034 156.573 275.456 156.066C273.536 154.388 271.36 153.028 269.009 152.038C267.718 151.487 266.379 151.055 265.009 150.749C263.905 150.437 262.75 150.348 261.612 150.486C260.831 150.596 260.1 150.935 259.514 151.461C259.357 151.606 259.218 151.768 259.098 151.945C258.996 152.072 258.953 152.131 258.962 152.14Z" fill="white"/>
<path d="M157.602 225.212V224.847C157.598 224.488 157.615 224.128 157.653 223.77C157.706 223.187 157.729 222.601 157.721 222.015C157.721 221.32 157.679 220.522 157.653 219.624C157.628 218.725 157.475 217.732 157.373 216.647C157.313 216.104 157.186 215.545 157.093 214.951C156.999 214.357 156.906 213.747 156.744 213.128C156.089 210.308 155.168 207.557 153.993 204.911C152.532 201.719 150.699 198.71 148.531 195.947C146.051 192.775 143.131 189.971 139.86 187.62C136.245 185.029 132.228 183.049 127.969 181.76C123.377 180.387 118.604 179.717 113.811 179.776C109.024 179.87 104.276 180.664 99.7202 182.133C95.4816 183.507 91.4735 185.508 87.8295 188.069C84.5355 190.394 81.5453 193.12 78.9285 196.185C76.6624 198.857 74.6707 201.749 72.9832 204.817C71.6047 207.368 70.4208 210.018 69.4415 212.746C69.2291 213.34 69.0592 213.942 68.8809 214.502C68.7025 215.061 68.5157 215.612 68.3798 216.147C68.125 217.207 67.8532 218.173 67.6748 219.055C67.4965 219.937 67.3606 220.751 67.2247 221.404C67.0888 222.057 67.0548 222.668 66.9869 223.143C66.9189 223.618 66.8765 223.991 66.8425 224.211C66.8085 224.432 66.7831 224.576 66.7831 224.576V224.211C66.7831 223.974 66.851 223.601 66.902 223.134C66.9529 222.668 67.0124 222.074 67.1228 221.387C67.2332 220.7 67.3861 219.92 67.5475 219.03C67.7088 218.14 67.9806 217.181 68.2354 216.113C68.3543 215.579 68.5496 215.036 68.7195 214.417C68.8894 213.798 69.0593 213.255 69.2801 212.653C70.2387 209.908 71.4116 207.243 72.7878 204.682C74.4733 201.596 76.4651 198.687 78.7332 195.998C81.3556 192.912 84.3544 190.166 87.6597 187.824C91.3146 185.228 95.3442 183.204 99.6098 181.82C104.204 180.354 108.988 179.571 113.811 179.496C118.625 179.444 123.419 180.125 128.028 181.514C132.327 182.819 136.379 184.824 140.021 187.45C143.307 189.823 146.238 192.649 148.727 195.846C150.895 198.629 152.728 201.658 154.188 204.868C155.358 207.532 156.27 210.3 156.914 213.136C157.067 213.755 157.135 214.374 157.246 214.96C157.356 215.545 157.466 216.104 157.517 216.656C157.611 217.749 157.738 218.742 157.772 219.649C157.806 220.556 157.772 221.345 157.772 222.04C157.772 222.736 157.704 223.321 157.679 223.796C157.653 224.271 157.628 224.644 157.602 224.873C157.585 224.985 157.585 225.099 157.602 225.212Z" fill="#263238"/>
<path d="M126.636 181.235C126.581 181.169 126.53 181.102 126.483 181.031C126.389 180.895 126.245 180.666 126.092 180.421C125.752 179.886 125.243 179.106 124.725 178.131C124.057 176.989 123.448 175.815 122.899 174.612C122.744 174.252 122.619 173.881 122.525 173.501C122.482 173.291 122.482 173.075 122.525 172.865C122.576 172.67 122.635 172.475 122.695 172.28C122.941 171.5 123.23 170.711 123.544 169.914C124.801 166.708 126.092 163.868 126.941 161.807C127.4 160.781 127.791 159.95 128.054 159.382L128.368 158.729C128.402 158.651 128.445 158.577 128.496 158.508C128.479 158.593 128.454 158.675 128.419 158.754C128.343 158.932 128.258 159.153 128.147 159.424C127.893 160.043 127.544 160.874 127.12 161.883C126.27 163.961 125.022 166.819 123.773 170.007C123.459 170.855 123.17 171.593 122.924 172.356C122.778 172.704 122.711 173.081 122.729 173.458C122.81 173.819 122.927 174.172 123.077 174.51C123.663 175.867 124.308 177.054 124.835 178.038L126.126 180.37C126.27 180.624 126.381 180.836 126.474 181.006C126.54 181.073 126.595 181.15 126.636 181.235Z" fill="#263238"/>
<path d="M83.5233 191.648C83.5233 191.724 75.1659 191.826 64.838 191.877C54.5102 191.928 46.1527 191.877 46.1527 191.826C46.1527 191.775 54.5102 191.656 64.838 191.606C75.1659 191.555 83.5233 191.555 83.5233 191.648Z" fill="#263238"/>
<path d="M278.683 216.503C278.683 216.579 251.573 216.893 218.134 217.215C184.696 217.537 157.568 217.724 157.568 217.648C157.568 217.571 184.679 217.258 218.134 216.944C251.589 216.63 278.683 216.435 278.683 216.503Z" fill="#263238"/>
<path d="M384.748 215.824C384.748 215.901 380.595 216.003 375.473 216.053C370.352 216.104 366.199 216.053 366.199 216.003C366.199 215.952 370.343 215.833 375.465 215.782C380.586 215.731 384.748 215.757 384.748 215.824Z" fill="#263238"/>
<path d="M361.323 167.175H360.542L358.308 167.022C356.363 166.878 353.552 166.649 350.087 166.335C343.156 165.716 333.584 164.724 323.052 163.359C312.521 161.993 303.008 160.492 296.146 159.322C292.748 158.737 289.945 158.245 288.034 157.881L285.826 157.465L285.257 157.346L285.062 157.304H285.266L285.835 157.397L288.051 157.762L296.179 159.119C303.051 160.238 312.555 161.663 323.086 163.07C333.618 164.478 343.182 165.462 350.104 166.132L358.317 166.895L360.542 167.107L361.128 167.166L361.323 167.175Z" fill="#263238"/>
<path d="M226.39 171.711C226.527 171.681 226.666 171.658 226.806 171.644C227.2 171.567 227.575 171.415 227.91 171.194C228.436 170.84 228.827 170.321 229.023 169.719C229.14 169.343 229.186 168.949 229.159 168.557C229.14 168.121 229.024 167.695 228.819 167.31C228.578 166.872 228.224 166.506 227.794 166.25C227.364 165.994 226.873 165.856 226.373 165.852H222.823L214.669 165.945C214 165.952 213.356 166.203 212.86 166.651C212.364 167.1 212.049 167.715 211.977 168.379C211.899 169.019 212.021 169.667 212.325 170.236C212.64 170.769 213.12 171.185 213.692 171.423C214.255 171.609 214.851 171.676 215.442 171.618H224.725L220.241 171.703L217.141 171.754H214.525C214.204 171.738 213.888 171.669 213.59 171.55C212.961 171.302 212.434 170.847 212.095 170.261C211.758 169.649 211.619 168.947 211.696 168.252C211.775 167.513 212.122 166.828 212.671 166.327C213.22 165.826 213.933 165.542 214.677 165.53L222.823 165.47H226.381C227.158 165.479 227.901 165.789 228.453 166.335C229.004 166.881 229.322 167.62 229.337 168.396C229.365 168.81 229.31 169.225 229.176 169.617C228.961 170.242 228.539 170.775 227.978 171.126C227.631 171.354 227.235 171.499 226.823 171.55C226.687 171.625 226.541 171.68 226.39 171.711Z" fill="#263238"/>
<path d="M225.328 164.961C222.253 165.182 219.166 165.21 216.087 165.046C217.62 164.902 219.16 164.843 220.699 164.868C222.243 164.806 223.788 164.837 225.328 164.961Z" fill="white"/>
<path d="M149.61 172.907C149.751 172.9 149.89 172.877 150.026 172.839C150.535 172.748 151.01 172.52 151.4 172.181C151.79 171.843 152.081 171.405 152.243 170.914C152.36 170.539 152.406 170.145 152.379 169.753C152.36 169.317 152.244 168.891 152.039 168.506C151.8 168.067 151.446 167.701 151.016 167.446C150.585 167.191 150.094 167.056 149.593 167.056L146.043 167.098L137.898 167.183C137.22 167.19 136.569 167.445 136.068 167.9C135.567 168.355 135.251 168.978 135.18 169.651C135.1 170.292 135.225 170.942 135.537 171.508C135.842 172.046 136.321 172.464 136.896 172.695C137.461 172.883 138.06 172.949 138.654 172.89H149.61C149.469 172.907 149.327 172.907 149.185 172.89H147.962L143.478 172.975L140.378 173.026H137.77C137.271 173.001 136.787 172.851 136.361 172.591C135.935 172.33 135.581 171.966 135.333 171.533C134.994 170.918 134.854 170.213 134.934 169.515C135.012 168.777 135.359 168.094 135.908 167.594C136.458 167.094 137.172 166.812 137.915 166.802L146.068 166.734H149.627C150.164 166.741 150.689 166.891 151.148 167.17C151.607 167.449 151.982 167.846 152.235 168.32C152.456 168.732 152.573 169.192 152.574 169.659C152.601 170.07 152.547 170.482 152.413 170.872C152.211 171.54 151.774 172.113 151.181 172.483C150.831 172.704 150.437 172.846 150.026 172.899C149.888 172.919 149.749 172.921 149.61 172.907Z" fill="#263238"/>
<path d="M148.548 166.208C147.013 166.352 145.47 166.412 143.928 166.386C142.387 166.448 140.844 166.417 139.308 166.293C142.384 166.084 145.469 166.055 148.548 166.208Z" fill="white"/>
<path d="M366.708 224.203V221.014C366.708 220.327 366.589 219.522 366.513 218.631C366.436 217.741 366.249 216.749 366.097 215.672C366.02 215.129 365.867 214.578 365.757 213.976C365.65 213.37 365.511 212.77 365.341 212.178C364.592 209.386 363.6 206.665 362.377 204.046C360.827 200.888 358.93 197.913 356.72 195.176C354.215 192.03 351.292 189.239 348.031 186.882C344.417 184.272 340.401 182.267 336.141 180.946C326.96 178.062 317.1 178.157 307.977 181.218C303.766 182.636 299.813 184.726 296.273 187.408C293.068 189.835 290.211 192.688 287.78 195.888C285.648 198.673 283.836 201.688 282.378 204.877C281.204 207.517 280.263 210.256 279.567 213.06C279.405 213.679 279.312 214.29 279.184 214.866C279.051 215.425 278.949 215.992 278.879 216.562C278.743 217.648 278.581 218.64 278.513 219.53C278.445 220.421 278.411 221.226 278.369 221.922C278.327 222.617 278.369 223.194 278.369 223.668V221.913C278.369 221.218 278.445 220.421 278.488 219.522C278.53 218.623 278.7 217.639 278.828 216.545C278.887 216.003 279.023 215.443 279.125 214.849C279.227 214.256 279.337 213.654 279.499 213.035C280.179 210.213 281.109 207.458 282.276 204.8C283.731 201.594 285.543 198.562 287.678 195.761C290.129 192.556 293.009 189.702 296.239 187.281C299.814 184.586 303.804 182.489 308.053 181.073C317.228 177.986 327.148 177.894 336.378 180.811C340.653 182.128 344.684 184.133 348.312 186.747C351.545 189.11 354.442 191.899 356.924 195.04C359.108 197.802 360.974 200.8 362.487 203.978C363.702 206.612 364.686 209.348 365.426 212.153C365.604 212.772 365.697 213.382 365.833 213.967C365.974 214.526 366.085 215.092 366.165 215.663C366.309 216.749 366.479 217.741 366.564 218.64C366.649 219.539 366.674 220.336 366.725 221.023C366.776 221.71 366.725 222.303 366.725 222.778V223.872C366.726 223.982 366.72 224.093 366.708 224.203Z" fill="#263238"/>
<path d="M139.07 125.105H135.52L125.846 125.199L93.9193 125.394L76.3381 125.47C70.9363 125.47 66.0611 125.563 61.9758 125.368C58.7487 125.253 55.5335 124.916 52.3529 124.359C51.2233 124.156 50.3569 123.969 49.8049 123.816L49.1424 123.655L48.9215 123.588H49.1509L49.8218 123.723C50.4079 123.85 51.2742 124.02 52.3698 124.215C55.5551 124.763 58.7721 125.109 62.0013 125.25C66.0866 125.419 70.9448 125.317 76.3551 125.292L93.9278 125.199L125.863 125.072H138.857L139.07 125.105Z" fill="#263238"/>
<path d="M176.05 138.495C176.05 138.563 170.453 141.641 163.471 145.373C156.49 149.104 150.808 152.089 150.731 152.021C150.655 151.953 156.328 148.875 163.301 145.135C170.274 141.396 176.007 138.428 176.05 138.495Z" fill="#FAFAFA"/>
<path d="M187.864 136.011C187.78 136.08 187.689 136.139 187.592 136.189L186.794 136.621L183.83 138.216C181.282 139.547 177.884 141.413 174.096 143.516C170.308 145.619 166.902 147.569 164.448 148.985L161.535 150.681L160.736 151.131L160.456 151.275C160.531 151.198 160.617 151.132 160.711 151.08L161.484 150.596C162.155 150.172 163.131 149.57 164.354 148.841C166.784 147.374 170.172 145.398 173.96 143.295C177.748 141.192 181.214 139.352 183.745 138.063C185.002 137.41 186.029 136.893 186.743 136.545L187.592 136.155L187.864 136.011Z" fill="#FAFAFA"/>
<path d="M239.283 139.835C239.213 139.882 239.139 139.922 239.062 139.954L238.416 140.268L236.013 141.362C233.983 142.294 231.197 143.592 228.148 145.101C225.099 146.611 222.364 148.035 220.393 149.078L218.066 150.316L217.421 150.647C217.353 150.698 217.275 150.733 217.191 150.749C217.252 150.689 217.321 150.637 217.395 150.596L218.007 150.223C218.542 149.909 219.332 149.452 220.3 148.909C222.254 147.823 224.971 146.365 228.029 144.855C231.087 143.346 233.889 142.074 235.936 141.192C236.964 140.743 237.796 140.395 238.374 140.166L239.045 139.903C239.121 139.872 239.201 139.849 239.283 139.835Z" fill="#FAFAFA"/>
<path d="M231.868 139.174C231.396 139.47 230.902 139.731 230.39 139.954C229.473 140.412 228.216 141.065 226.848 141.836C225.481 142.608 224.3 143.363 223.451 143.923C222.998 144.236 222.524 144.519 222.033 144.771C222.445 144.382 222.894 144.036 223.375 143.736C224.224 143.142 225.413 142.354 226.772 141.574C228.131 140.793 229.422 140.174 230.365 139.75C230.848 139.514 231.351 139.321 231.868 139.174Z" fill="#FAFAFA"/>
<path d="M115.883 139.979C115.883 140.047 112.18 141.591 107.551 143.414C102.922 145.237 99.1426 146.67 99.1171 146.594C99.0916 146.517 102.82 144.991 107.449 143.159C112.078 141.328 115.858 139.92 115.883 139.979Z" fill="#FAFAFA"/>
<path d="M111.05 138.47C111.05 138.546 107.857 139.818 103.856 141.311C99.8561 142.803 96.5946 143.973 96.5692 143.906C96.5437 143.838 99.7626 142.557 103.763 141.065C107.763 139.572 111.025 138.402 111.05 138.47Z" fill="#FAFAFA"/>
<path d="M330.501 177.232H330.076L328.862 177.122L328.013 177.037C327.664 177.044 327.314 177.027 326.968 176.986C326.212 176.986 325.363 176.884 324.42 176.91H322.934C322.424 176.91 321.889 176.961 321.328 176.986C320.216 176.986 319.044 177.156 317.795 177.283C312.408 177.936 307.158 179.429 302.235 181.709C301.114 182.261 300.036 182.761 299.076 183.312C298.592 183.583 298.116 183.829 297.674 184.101L296.417 184.864C295.568 185.347 294.914 185.856 294.286 186.272C293.98 186.492 293.691 186.679 293.436 186.874L292.74 187.399L291.763 188.137C291.656 188.229 291.539 188.308 291.415 188.375C291.511 188.273 291.617 188.179 291.729 188.095L292.672 187.323L293.36 186.764C293.615 186.568 293.903 186.373 294.209 186.153C294.829 185.72 295.509 185.195 296.315 184.703L297.572 183.906C298.014 183.634 298.49 183.388 298.974 183.109C299.942 182.54 301.021 182.032 302.142 181.48C304.615 180.338 307.17 179.383 309.786 178.623C312.41 177.897 315.084 177.364 317.787 177.028C319.035 176.91 320.216 176.774 321.337 176.749C321.897 176.749 322.432 176.689 322.951 176.698H324.445C325.397 176.698 326.246 176.774 326.993 176.816C327.343 176.823 327.691 176.849 328.038 176.893L328.887 177.003L330.102 177.164L330.501 177.232Z" fill="#FAFAFA"/>
<path d="M115.11 177.86H113.811C113.386 177.86 112.876 177.86 112.29 177.91C111.704 177.961 111.025 177.97 110.277 178.055L109.114 178.173C108.715 178.173 108.264 178.292 107.857 178.351C107.007 178.453 106.073 178.648 105.105 178.826C103.014 179.277 100.95 179.843 98.9218 180.522C96.901 181.209 94.9167 181.999 92.9765 182.888C91.1929 183.736 89.5792 184.584 88.3221 185.28C87.6597 185.636 87.0906 185.992 86.6235 186.297L85.324 187.086L84.4747 187.595C84.3823 187.66 84.2825 187.714 84.1774 187.756C84.2593 187.681 84.3474 187.613 84.4407 187.552L85.2391 187.001C85.5788 186.764 86.0035 186.475 86.5131 186.153C87.0227 185.831 87.5832 185.475 88.2117 185.11C89.4942 184.347 91.074 183.507 92.8576 182.659C94.7951 181.754 96.7797 180.953 98.8029 180.259C100.843 179.571 102.921 179.005 105.029 178.563C106.005 178.394 106.931 178.207 107.806 178.114C108.239 178.055 108.655 177.987 109.071 177.953L110.235 177.851C110.982 177.775 111.662 177.766 112.256 177.741C112.851 177.715 113.36 177.741 113.785 177.741H114.745C114.87 177.769 114.992 177.809 115.11 177.86Z" fill="#FAFAFA"/>
<path d="M22.3969 278.661L426.9 282.121V266.467H22.3969V278.661Z" fill="#263238"/>
<path d="M445.042 256.605H542.783V297.758H445.042V256.605Z" fill="#263238"/>
<path d="M49.72 292.144H550.249V320.943H49.72V292.144Z" fill="#263238"/>
<path d="M428.642 301.464H446.902V156.804H442.07C438.508 156.804 435.093 158.216 432.575 160.73C430.056 163.245 428.642 166.655 428.642 170.21V301.464Z" fill="#263238"/>
<path d="M608.021 227.968C607.978 222.032 605.711 218.097 601.515 212.127L547.158 143.694C546.419 142.955 545.541 142.37 544.574 141.973C543.608 141.576 542.572 141.374 541.526 141.379H454.894C452.775 141.379 450.742 142.219 449.243 143.716C447.744 145.212 446.902 147.242 446.902 149.358V254.951C446.902 257.157 447.338 259.341 448.184 261.379C449.03 263.417 450.271 265.268 451.834 266.827C453.398 268.385 455.254 269.621 457.296 270.463C459.338 271.305 461.527 271.736 463.736 271.733H464.084C538.384 261.099 551.566 318.28 551.566 318.28L607.273 317.313L608.012 233.683L608.021 227.968Z" fill="#465154"/>
<path d="M606.356 219.852L599.969 219.717L545.612 149.044L550.708 148.196C550.708 148.196 586.991 193.285 602.271 213.238C604.301 215.858 605.269 218.182 606.356 219.852Z" fill="#455A64"/>
<path d="M467.184 157.253L531.793 156.88C532.755 156.887 533.704 157.093 534.581 157.485C535.459 157.878 536.245 158.449 536.889 159.161L576.697 211.737C577.355 212.54 577.771 213.512 577.897 214.541C578.022 215.571 577.853 216.615 577.408 217.552C576.964 218.489 576.262 219.28 575.384 219.835C574.506 220.389 573.489 220.683 572.451 220.684L467.133 220.531C463.243 220.531 460.084 217.139 460.084 212.899V164.877C460.177 160.679 463.311 157.279 467.184 157.253Z" fill="#455A64"/>
<path d="M25.1233 275.948H442.783V298.394H25.1233V275.948Z" fill="#263238"/>
<path d="M75.3528 311.665H65.5091C64.5045 311.665 63.541 311.267 62.8306 310.558C62.1202 309.848 61.7211 308.886 61.7211 307.883C61.72 307.387 61.8169 306.895 62.0062 306.435C62.1955 305.976 62.4736 305.558 62.8246 305.206C63.1755 304.855 63.5925 304.575 64.0517 304.384C64.5108 304.193 65.0032 304.094 65.5006 304.093H75.3528C76.3576 304.097 77.3198 304.498 78.0294 305.208C78.7391 305.919 79.1386 306.88 79.1409 307.883C79.1409 308.886 78.7418 309.848 78.0314 310.558C77.321 311.267 76.3575 311.665 75.3528 311.665Z" fill="#E74527"/>
<path d="M586.218 337.606H433.729C431.517 337.606 429.396 336.728 427.831 335.167C426.267 333.605 425.389 331.487 425.389 329.278C425.388 328.185 425.602 327.102 426.02 326.091C426.438 325.08 427.052 324.162 427.825 323.388C428.599 322.613 429.518 321.999 430.529 321.58C431.541 321.16 432.625 320.944 433.721 320.943H586.218C588.427 320.951 590.542 321.834 592.1 323.396C593.658 324.958 594.533 327.073 594.533 329.278C594.533 331.482 593.658 333.597 592.099 335.158C590.541 336.719 588.426 337.599 586.218 337.606Z" fill="#263238"/>
<path d="M209.947 326.785H434.077V334.451H209.947V326.785Z" fill="#263238"/>
<path d="M309.004 340.625H379.652C385.588 340.625 391.28 338.27 395.477 334.08C399.674 329.889 402.032 324.206 402.032 318.28C402.027 312.356 399.668 306.677 395.471 302.491C391.274 298.304 385.585 295.952 379.652 295.952H308.979C303.045 295.952 297.354 298.305 293.157 302.494C288.96 306.682 286.601 312.363 286.599 318.288C286.6 321.224 287.181 324.131 288.307 326.843C289.434 329.554 291.085 332.018 293.166 334.092C295.247 336.166 297.717 337.811 300.434 338.932C303.152 340.053 306.064 340.628 309.004 340.625Z" fill="#455A64"/>
<path d="M380.68 240.196L402.66 181.574L417.354 182.379L418.203 268.536L20.1632 271.419L20.2651 243.749L380.68 240.196Z" fill="#455A64"/>
<path d="M20.1632 261.311L418.161 262.108L418.203 250.626L20.1632 251.254V261.311Z" fill="white"/>
<path d="M153.449 251.05L168.168 261.498L154.001 261.455L139.537 251.067L153.449 251.05Z" fill="#E74527"/>
<path d="M184.586 251.101L199.313 261.549L185.146 261.515L170.682 251.118L184.586 251.101Z" fill="#E74527"/>
<path d="M215.637 250.949L230.518 261.65L216.351 261.616L201.479 250.974L215.637 250.949Z" fill="#E74527"/>
<path d="M246.638 250.898L261.688 261.727L247.521 261.693L232.819 250.923L246.638 250.898Z" fill="#E74527"/>
<path d="M277.528 250.847L292.833 261.803L278.692 261.769L263.531 250.872L277.528 250.847Z" fill="#E74527"/>
<path d="M308.835 250.804L324.038 261.879L309.871 261.845L294.761 250.821L308.835 250.804Z" fill="#E74527"/>
<path d="M339.691 250.754L355.217 261.956L341.041 261.922L325.711 250.779L339.691 250.754Z" fill="#E74527"/>
<path d="M370.632 250.703L386.387 262.032L372.212 261.998L356.975 250.728L370.632 250.703Z" fill="#E74527"/>
<path d="M401.845 250.652L417.235 262.117L403.068 262.083L388.009 250.677L401.845 250.652Z" fill="#E74527"/>
<path d="M124.793 250.982L139.554 261.515L125.387 261.481L110.719 251.118L124.793 250.982Z" fill="#E74527"/>
<path d="M96.1955 251.135L110.787 261.498L96.9174 261.515L82.2834 251.169L96.1955 251.135Z" fill="#E74527"/>
<path d="M66.6727 251.135L82.1476 261.472L67.9807 261.438L53.3976 251.135H66.6727Z" fill="#E74527"/>
<path d="M39.2562 251.271L53.8478 261.472L39.6809 261.438L25.3441 251.305L39.2562 251.271Z" fill="#E74527"/>
<path d="M453.391 268.188V253.671C453.391 244.343 453.434 230.775 453.459 214.095V159.466C453.384 158.109 453.449 156.748 453.654 155.404C453.959 154.069 454.604 152.836 455.527 151.822C456.449 150.809 457.618 150.051 458.92 149.621C460.275 149.252 461.682 149.117 463.082 149.223H534.426C535.2 149.196 535.975 149.224 536.745 149.307C538.257 149.52 539.676 150.165 540.83 151.164C541.399 151.666 541.904 152.236 542.333 152.86L543.726 154.718L546.487 158.398L551.948 165.682L572.782 193.488L582.481 206.403L587.127 212.594C588.699 214.525 590.118 216.575 591.374 218.725C593.056 221.88 593.972 225.386 594.049 228.96V245.521C594.049 262.227 594.117 275.753 594.134 285.106C594.134 289.77 594.134 293.399 594.134 295.867V285.106C594.134 275.778 594.134 262.21 594.194 245.53V228.96C594.123 225.329 593.2 221.766 591.501 218.555C590.246 216.386 588.826 214.317 587.255 212.365L582.609 206.174C579.472 201.974 576.244 197.663 572.926 193.242L552.118 165.479L546.656 158.194L543.896 154.506L542.503 152.657C542.054 152.004 541.53 151.406 540.94 150.876C539.724 149.817 538.224 149.137 536.626 148.917C535.837 148.827 535.042 148.796 534.248 148.824H463.04C461.593 148.714 460.139 148.857 458.742 149.248C457.374 149.702 456.146 150.501 455.177 151.568C454.209 152.635 453.532 153.933 453.213 155.337C453.136 155.684 453.094 156.032 453.051 156.38C453.005 156.729 453.005 157.082 453.051 157.431V214.111C453.051 230.817 453.111 244.334 453.128 253.688C453.128 258.36 453.128 261.981 453.17 264.457V267.256C453.165 267.58 453.241 267.901 453.391 268.188Z" fill="#263238"/>
<path d="M544.873 222.82C546.721 222.818 548.494 222.084 549.801 220.779C551.108 219.474 551.844 217.704 551.846 215.858V190.97C551.846 189.124 551.113 187.353 549.807 186.047C548.501 184.74 546.73 184.004 544.881 183.999C543.03 183.999 541.254 184.733 539.945 186.041C538.635 187.348 537.9 189.121 537.9 190.97V215.85C537.9 217.699 538.635 219.472 539.945 220.779C541.254 222.086 543.03 222.82 544.881 222.82H544.873Z" fill="#263238"/>
<path d="M560.407 231.504H562.955V204.554C562.951 202.995 562.511 201.468 561.686 200.144C560.861 198.82 559.683 197.751 558.284 197.058C551.744 193.853 550.818 193.725 550.427 193.666L550.071 196.21L550.249 194.947L550.062 196.21C550.224 196.21 551.328 196.507 557.163 199.365C558.134 199.849 558.952 200.592 559.525 201.513C560.098 202.434 560.403 203.496 560.407 204.58V231.504Z" fill="#263238"/>
<path d="M546.818 212.153H561.46V214.697H546.818V212.153Z" fill="#263238"/>
<path d="M561.358 238.661C562.658 238.661 563.905 238.145 564.824 237.228C565.743 236.31 566.259 235.066 566.259 233.768V227.722C566.259 226.424 565.743 225.18 564.824 224.262C563.905 223.344 562.658 222.829 561.358 222.829C560.715 222.828 560.077 222.953 559.482 223.198C558.887 223.443 558.346 223.802 557.891 224.256C557.435 224.71 557.073 225.248 556.826 225.842C556.578 226.435 556.45 227.071 556.449 227.713V233.76C556.449 235.06 556.966 236.306 557.887 237.225C558.808 238.145 560.056 238.661 561.358 238.661Z" fill="#263238"/>
<path d="M480.196 169.965C480.12 170.066 489.046 177.291 500.121 186.077C511.197 194.862 520.251 201.968 520.327 201.875C520.404 201.782 511.486 194.548 500.402 185.763C489.318 176.978 480.273 169.871 480.196 169.965Z" fill="white"/>
<path d="M485.734 182.413C485.657 182.507 494.575 189.731 505.659 198.525C516.743 207.319 525.788 214.417 525.865 214.323C525.941 214.23 517.023 207.005 505.939 198.212C494.856 189.418 485.819 182.32 485.734 182.413Z" fill="white"/>
<path d="M445.484 329.278C445.486 337.759 448.006 346.05 452.726 353.101C457.447 360.152 464.156 365.647 472.004 368.891C479.852 372.136 488.488 372.984 496.819 371.328C505.15 369.673 512.802 365.588 518.808 359.59C524.814 353.592 528.904 345.951 530.561 337.633C532.217 329.315 531.366 320.693 528.115 312.857C524.864 305.022 519.359 298.325 512.296 293.613C505.233 288.901 496.929 286.386 488.435 286.386C482.794 286.386 477.208 287.496 471.996 289.652C466.785 291.807 462.049 294.967 458.061 298.95C454.072 302.933 450.909 307.661 448.751 312.865C446.593 318.069 445.483 323.646 445.484 329.278Z" fill="#455A64"/>
<path d="M445.484 329.168V329.278C445.484 340.652 450.009 351.559 458.064 359.601C466.119 367.644 477.043 372.162 488.435 372.162C499.826 372.162 510.751 367.644 518.805 359.601C526.86 351.559 531.385 340.652 531.385 329.278V329.168H445.484Z" fill="#455A64"/>
<path d="M458.275 329.278C458.275 335.234 460.044 341.056 463.358 346.008C466.672 350.96 471.382 354.82 476.893 357.099C482.404 359.378 488.468 359.974 494.318 358.812C500.169 357.65 505.543 354.782 509.761 350.571C513.979 346.36 516.851 340.994 518.015 335.153C519.179 329.312 518.581 323.257 516.299 317.755C514.016 312.252 510.15 307.55 505.19 304.241C500.231 300.932 494.4 299.166 488.435 299.166C480.436 299.166 472.764 302.338 467.108 307.986C461.452 313.633 458.275 321.292 458.275 329.278Z" fill="#FAFAFA"/>
<path d="M488.435 299.166C480.436 299.166 472.764 302.338 467.108 307.986C461.452 313.633 458.275 321.292 458.275 329.278H518.577C518.579 325.325 517.8 321.41 516.286 317.757C514.771 314.105 512.551 310.785 509.752 307.989C506.953 305.193 503.63 302.975 499.972 301.461C496.315 299.947 492.394 299.167 488.435 299.166Z" fill="#E0E0E0"/>
<path d="M470.063 329.278C470.063 332.906 471.141 336.452 473.16 339.469C475.178 342.485 478.047 344.836 481.404 346.224C484.761 347.613 488.455 347.976 492.019 347.268C495.582 346.56 498.856 344.814 501.425 342.248C503.994 339.683 505.744 336.415 506.453 332.857C507.162 329.299 506.798 325.611 505.407 322.259C504.017 318.908 501.662 316.043 498.641 314.027C495.62 312.012 492.068 310.936 488.435 310.936C486.022 310.935 483.632 311.409 481.403 312.33C479.174 313.251 477.148 314.603 475.442 316.306C473.736 318.009 472.382 320.032 471.46 322.258C470.537 324.484 470.062 326.869 470.063 329.278Z" fill="#263238"/>
<path d="M181.664 372.077C157.943 372.077 138.713 352.877 138.713 329.194C138.713 305.51 157.943 286.31 181.664 286.31C205.385 286.31 224.615 305.51 224.615 329.194C224.615 352.877 205.385 372.077 181.664 372.077Z" fill="#455A64"/>
<path d="M138.756 329.024V329.134C138.756 340.508 143.281 351.415 151.336 359.457C159.39 367.499 170.315 372.017 181.706 372.017C193.098 372.017 204.022 367.499 212.077 359.457C220.132 351.415 224.657 340.508 224.657 329.134V329.024H138.756Z" fill="#455A64"/>
<path d="M151.547 329.168C151.547 335.124 153.315 340.946 156.629 345.898C159.943 350.85 164.654 354.709 170.165 356.988C175.676 359.268 181.74 359.864 187.59 358.702C193.441 357.54 198.815 354.672 203.033 350.461C207.25 346.25 210.123 340.884 211.287 335.043C212.45 329.202 211.853 323.147 209.57 317.645C207.288 312.142 203.422 307.439 198.462 304.131C193.502 300.822 187.671 299.056 181.706 299.056C173.71 299.056 166.041 302.227 160.386 307.873C154.732 313.519 151.555 321.176 151.555 329.16L151.547 329.168Z" fill="#FAFAFA"/>
<path d="M181.698 299.056C173.701 299.056 166.032 302.227 160.378 307.873C154.723 313.519 151.547 321.176 151.547 329.16H211.849C211.847 321.176 208.67 313.52 203.016 307.875C197.362 302.23 189.694 299.058 181.698 299.056Z" fill="#E0E0E0"/>
<path d="M163.327 329.168C163.327 332.796 164.404 336.342 166.423 339.359C168.442 342.375 171.311 344.726 174.668 346.114C178.024 347.502 181.718 347.866 185.282 347.158C188.846 346.45 192.119 344.703 194.688 342.138C197.257 339.573 199.007 336.305 199.716 332.747C200.425 329.189 200.061 325.5 198.671 322.149C197.28 318.797 194.925 315.933 191.904 313.917C188.883 311.902 185.331 310.826 181.698 310.826C179.285 310.825 176.896 311.298 174.666 312.22C172.437 313.141 170.411 314.492 168.705 316.196C166.999 317.899 165.646 319.922 164.723 322.148C163.8 324.373 163.326 326.759 163.327 329.168Z" fill="#263238"/>
<path d="M55.0369 297.012H59.4025L71.9301 297.08L117.998 297.232L270.029 297.589L446.749 297.885H446.877V297.758C446.877 285.691 446.877 276.143 446.817 269.605C446.817 276.143 446.817 285.717 446.758 297.758V297.648L270.02 297.216L117.989 296.995H56.1325L55.0369 297.012Z" fill="#455A64"/>
<path d="M550.011 299.632H605.32C609.312 299.632 612.548 302.863 612.548 306.849V315.617C612.548 319.603 609.312 322.834 605.32 322.834H550.011C546.02 322.834 542.784 319.603 542.784 315.617V306.849C542.784 302.863 546.02 299.632 550.011 299.632Z" fill="#263238"/>
<path d="M605.328 322.834H605.778C606.216 322.817 606.652 322.757 607.078 322.655C608.516 322.308 609.814 321.532 610.799 320.431C611.785 319.33 612.413 317.956 612.599 316.491C612.675 315.821 612.658 315.117 612.667 314.396C612.675 313.675 612.667 312.92 612.667 312.14V307.154C612.745 305.196 612.042 303.287 610.713 301.845C609.383 300.403 607.536 299.546 605.575 299.463H550.02C548.474 299.456 546.965 299.931 545.703 300.822C544.44 301.713 543.488 302.975 542.979 304.432C542.72 305.136 542.576 305.878 542.554 306.628V315.108C542.528 315.82 542.588 316.531 542.732 317.228C542.884 317.921 543.133 318.589 543.471 319.213C543.819 319.83 544.244 320.4 544.737 320.909C545.725 321.887 546.966 322.571 548.321 322.884C548.993 323.035 549.68 323.103 550.368 323.088H552.321L579.916 323.037L598.517 322.969L603.613 322.927H598.517L579.916 322.859H552.321H550.368C549.72 322.878 549.072 322.815 548.44 322.672C547.156 322.377 545.98 321.731 545.043 320.807C544.583 320.329 544.183 319.796 543.854 319.221C543.537 318.631 543.302 318.001 543.157 317.347C543.027 316.68 542.973 316 542.996 315.32V308.672C542.87 307.245 543.011 305.807 543.412 304.432C543.888 303.076 544.779 301.904 545.96 301.082C547.148 300.245 548.565 299.792 550.02 299.785H605.226C606.234 299.768 607.234 299.967 608.158 300.368C609.082 300.769 609.91 301.362 610.586 302.108C611.807 303.499 612.446 305.306 612.369 307.154V314.396C612.369 315.083 612.369 315.778 612.318 316.465C612.192 317.667 611.749 318.813 611.036 319.789C610.055 321.157 608.624 322.139 606.993 322.562C606.445 322.69 605.889 322.781 605.328 322.834Z" fill="#455A64"/>
<path d="M566.242 316.024H557.163C556.167 316.024 555.212 315.629 554.508 314.926C553.804 314.223 553.409 313.27 553.409 312.276C553.409 311.282 553.804 310.329 554.508 309.626C555.212 308.923 556.167 308.528 557.163 308.528H566.242C567.238 308.528 568.193 308.923 568.897 309.626C569.601 310.329 569.996 311.282 569.996 312.276C569.996 313.27 569.601 314.223 568.897 314.926C568.193 315.629 567.238 316.024 566.242 316.024Z" fill="#E74527"/>
<path d="M606.356 295.104V266.119C603.822 266.122 601.392 267.127 599.599 268.915C597.806 270.704 596.797 273.129 596.793 275.659V285.564C596.797 288.094 597.806 290.519 599.599 292.308C601.392 294.096 603.822 295.102 606.356 295.104Z" fill="#F5F5F5"/>
<path d="M539.573 211.89C539.651 211.528 539.682 211.157 539.666 210.787C539.666 209.982 539.726 208.973 539.76 207.76C539.819 205.216 539.87 201.688 539.896 197.796V192.309C539.831 190.848 540.122 189.393 540.745 188.069C541.207 187.195 541.94 186.493 542.834 186.068C543.176 185.942 543.525 185.837 543.879 185.754C543.783 185.746 543.686 185.746 543.59 185.754C543.301 185.772 543.015 185.829 542.741 185.924C541.766 186.307 540.955 187.018 540.448 187.934C539.749 189.294 539.405 190.807 539.446 192.335C539.446 194.031 539.446 195.888 539.378 197.83V207.76C539.378 208.973 539.378 209.982 539.429 210.779C539.445 211.153 539.493 211.524 539.573 211.89Z" fill="white"/>
<path d="M465.214 141.005C465.214 141.124 478.676 141.226 495.28 141.226C511.885 141.226 525.347 141.124 525.347 141.005C525.347 140.887 511.893 140.785 495.28 140.785C478.667 140.785 465.214 140.878 465.214 141.005Z" fill="#263238"/>
<path d="M468.144 237.44C467.971 237.431 467.8 237.403 467.634 237.355C467.16 237.251 466.718 237.036 466.343 236.728C465.758 236.243 465.383 235.549 465.299 234.794C465.249 234.301 465.328 233.803 465.529 233.349C465.73 232.896 466.046 232.503 466.445 232.208C466.903 231.868 467.455 231.675 468.025 231.657H484.162C484.848 231.653 485.511 231.903 486.023 232.36C486.535 232.816 486.858 233.446 486.931 234.127C487.004 234.808 486.821 235.492 486.418 236.046C486.015 236.6 485.42 236.985 484.748 237.126C484.383 237.184 484.013 237.204 483.644 237.186L475.559 237.236L470.114 237.304L468.628 237.347C468.457 237.348 468.287 237.362 468.119 237.389C468.285 237.432 468.457 237.449 468.628 237.44H470.114L475.559 237.516L483.644 237.559C484.042 237.583 484.441 237.56 484.833 237.491C485.567 237.338 486.224 236.931 486.688 236.344C487.152 235.756 487.394 235.023 487.372 234.275C487.35 233.527 487.064 232.81 486.566 232.251C486.068 231.692 485.388 231.325 484.647 231.216C484.485 231.203 484.324 231.203 484.162 231.216H468.025C467.387 231.238 466.772 231.456 466.263 231.84C465.754 232.224 465.376 232.756 465.181 233.363C464.986 233.969 464.983 234.621 465.173 235.23C465.363 235.838 465.736 236.373 466.242 236.762C466.643 237.073 467.121 237.272 467.626 237.338C467.792 237.399 467.967 237.433 468.144 237.44Z" fill="#263238"/>
<path d="M494.711 241.315H545.951C549.418 241.315 552.228 244.121 552.228 247.582V254.705C552.228 258.166 549.418 260.972 545.951 260.972H494.711C491.245 260.972 488.435 258.166 488.435 254.705V247.582C488.435 244.121 491.245 241.315 494.711 241.315Z" fill="#E74527"/>
<path d="M498.661 248.947C498.661 249.066 508.802 249.168 521.295 249.168C533.789 249.168 543.93 249.066 543.93 248.947C543.93 248.829 533.798 248.727 521.295 248.727C508.793 248.727 498.661 248.82 498.661 248.947Z" fill="white"/>
<path d="M502.992 253.348C502.992 253.467 510.458 253.569 519.656 253.569C528.854 253.569 536.312 253.467 536.312 253.348C536.312 253.23 528.854 253.128 519.656 253.128C510.458 253.128 502.992 253.221 502.992 253.348Z" fill="white"/>
<path d="M22.3969 278.661H38.4239L82.0117 278.602C118.813 278.475 169.654 278.068 225.804 277.516C281.953 276.965 332.82 276.499 369.621 276.304L413.201 276.092L425.091 276.041H413.201L369.621 276.109C332.811 276.227 281.97 276.635 225.804 277.194C169.637 277.754 118.788 278.203 82.0117 278.407L38.4239 278.61L26.5332 278.661H22.3969Z" fill="#455A64"/>
</svg>
